<mxfile host="app.diagrams.net" modified="2023-08-30T20:40:51.517Z" agent="Mozilla/5.0 (Windows NT 10.0; Win64; x64) AppleWebKit/537.36 (KHTML, like Gecko) Chrome/116.0.0.0 Safari/537.36" etag="MTu5fYd7meSpHQnjtsvn" version="21.7.1" type="github">
  <diagram name="Business-Plan" id="8ce9d11a-91a2-4d17-14d8-a56ed91bf033">
    <mxGraphModel dx="700" dy="409" grid="0" gridSize="10" guides="1" tooltips="1" connect="1" arrows="1" fold="1" page="0" pageScale="1" pageWidth="1100" pageHeight="850" background="#DBDBDB" math="0" shadow="1">
      <root>
        <mxCell id="0" />
        <mxCell id="1" parent="0" />
        <mxCell id="TLzMwkAxg-6fbiW4TvEV-3" value="" style="edgeStyle=orthogonalEdgeStyle;rounded=1;orthogonalLoop=1;jettySize=auto;html=1;" edge="1" parent="1" source="TLzMwkAxg-6fbiW4TvEV-1" target="TLzMwkAxg-6fbiW4TvEV-2">
          <mxGeometry relative="1" as="geometry" />
        </mxCell>
        <mxCell id="TLzMwkAxg-6fbiW4TvEV-4" value="" style="edgeStyle=orthogonalEdgeStyle;rounded=1;orthogonalLoop=1;jettySize=auto;html=1;" edge="1" parent="1" source="TLzMwkAxg-6fbiW4TvEV-1" target="TLzMwkAxg-6fbiW4TvEV-2">
          <mxGeometry relative="1" as="geometry" />
        </mxCell>
        <mxCell id="TLzMwkAxg-6fbiW4TvEV-5" value="" style="edgeStyle=orthogonalEdgeStyle;rounded=1;orthogonalLoop=1;jettySize=auto;html=1;" edge="1" parent="1" source="TLzMwkAxg-6fbiW4TvEV-1" target="TLzMwkAxg-6fbiW4TvEV-2">
          <mxGeometry relative="1" as="geometry" />
        </mxCell>
        <mxCell id="TLzMwkAxg-6fbiW4TvEV-7" value="" style="edgeStyle=orthogonalEdgeStyle;rounded=1;orthogonalLoop=1;jettySize=auto;html=1;" edge="1" parent="1" source="TLzMwkAxg-6fbiW4TvEV-1" target="TLzMwkAxg-6fbiW4TvEV-6">
          <mxGeometry relative="1" as="geometry" />
        </mxCell>
        <mxCell id="TLzMwkAxg-6fbiW4TvEV-1" value="Fundações" style="rounded=1;whiteSpace=wrap;html=1;fillColor=#dae8fc;strokeColor=#6c8ebf;" vertex="1" parent="1">
          <mxGeometry x="180" y="90" width="120" height="60" as="geometry" />
        </mxCell>
        <mxCell id="TLzMwkAxg-6fbiW4TvEV-17" value="" style="edgeStyle=orthogonalEdgeStyle;rounded=1;orthogonalLoop=1;jettySize=auto;html=1;" edge="1" parent="1" source="TLzMwkAxg-6fbiW4TvEV-2" target="TLzMwkAxg-6fbiW4TvEV-16">
          <mxGeometry relative="1" as="geometry" />
        </mxCell>
        <mxCell id="TLzMwkAxg-6fbiW4TvEV-2" value="Nicho" style="whiteSpace=wrap;html=1;rounded=1;labelBorderColor=none;labelBackgroundColor=none;" vertex="1" parent="1">
          <mxGeometry x="90" y="220" width="120" height="60" as="geometry" />
        </mxCell>
        <mxCell id="TLzMwkAxg-6fbiW4TvEV-18" style="edgeStyle=orthogonalEdgeStyle;rounded=1;orthogonalLoop=1;jettySize=auto;html=1;" edge="1" parent="1" source="TLzMwkAxg-6fbiW4TvEV-6" target="TLzMwkAxg-6fbiW4TvEV-16">
          <mxGeometry relative="1" as="geometry" />
        </mxCell>
        <mxCell id="TLzMwkAxg-6fbiW4TvEV-6" value="Estabelecer ICP (Perfil de cliente ideal)" style="whiteSpace=wrap;html=1;rounded=1;" vertex="1" parent="1">
          <mxGeometry x="260" y="220" width="120" height="60" as="geometry" />
        </mxCell>
        <mxCell id="TLzMwkAxg-6fbiW4TvEV-10" value="" style="edgeStyle=orthogonalEdgeStyle;rounded=1;orthogonalLoop=1;jettySize=auto;html=1;" edge="1" parent="1" source="TLzMwkAxg-6fbiW4TvEV-8" target="TLzMwkAxg-6fbiW4TvEV-9">
          <mxGeometry relative="1" as="geometry" />
        </mxCell>
        <mxCell id="TLzMwkAxg-6fbiW4TvEV-8" value="Obtendo Clientes" style="rounded=1;whiteSpace=wrap;html=1;fillColor=#dae8fc;strokeColor=#6c8ebf;" vertex="1" parent="1">
          <mxGeometry x="603" y="95" width="120" height="60" as="geometry" />
        </mxCell>
        <mxCell id="TLzMwkAxg-6fbiW4TvEV-29" value="" style="edgeStyle=orthogonalEdgeStyle;rounded=1;orthogonalLoop=1;jettySize=auto;html=1;" edge="1" parent="1" source="TLzMwkAxg-6fbiW4TvEV-9" target="TLzMwkAxg-6fbiW4TvEV-28">
          <mxGeometry relative="1" as="geometry" />
        </mxCell>
        <mxCell id="TLzMwkAxg-6fbiW4TvEV-9" value="Geração de Leads" style="whiteSpace=wrap;html=1;rounded=1;" vertex="1" parent="1">
          <mxGeometry x="603" y="225" width="120" height="60" as="geometry" />
        </mxCell>
        <mxCell id="TLzMwkAxg-6fbiW4TvEV-12" value="" style="edgeStyle=orthogonalEdgeStyle;rounded=1;orthogonalLoop=1;jettySize=auto;html=1;" edge="1" parent="1" source="TLzMwkAxg-6fbiW4TvEV-13" target="TLzMwkAxg-6fbiW4TvEV-14">
          <mxGeometry relative="1" as="geometry" />
        </mxCell>
        <mxCell id="TLzMwkAxg-6fbiW4TvEV-13" value="Entregando Resultados" style="rounded=1;whiteSpace=wrap;html=1;fillColor=#dae8fc;strokeColor=#6c8ebf;" vertex="1" parent="1">
          <mxGeometry x="1057" y="90" width="120" height="60" as="geometry" />
        </mxCell>
        <mxCell id="TLzMwkAxg-6fbiW4TvEV-45" value="" style="edgeStyle=orthogonalEdgeStyle;rounded=1;orthogonalLoop=1;jettySize=auto;html=1;" edge="1" parent="1" source="TLzMwkAxg-6fbiW4TvEV-14" target="TLzMwkAxg-6fbiW4TvEV-44">
          <mxGeometry relative="1" as="geometry" />
        </mxCell>
        <mxCell id="TLzMwkAxg-6fbiW4TvEV-46" value="" style="edgeStyle=orthogonalEdgeStyle;rounded=1;orthogonalLoop=1;jettySize=auto;html=1;" edge="1" parent="1" source="TLzMwkAxg-6fbiW4TvEV-14" target="TLzMwkAxg-6fbiW4TvEV-44">
          <mxGeometry relative="1" as="geometry" />
        </mxCell>
        <mxCell id="TLzMwkAxg-6fbiW4TvEV-48" style="edgeStyle=orthogonalEdgeStyle;rounded=1;orthogonalLoop=1;jettySize=auto;html=1;" edge="1" parent="1" source="TLzMwkAxg-6fbiW4TvEV-14" target="TLzMwkAxg-6fbiW4TvEV-47">
          <mxGeometry relative="1" as="geometry" />
        </mxCell>
        <mxCell id="TLzMwkAxg-6fbiW4TvEV-14" value="Acompanhando Cliente" style="whiteSpace=wrap;html=1;rounded=1;" vertex="1" parent="1">
          <mxGeometry x="1057" y="220" width="120" height="60" as="geometry" />
        </mxCell>
        <mxCell id="TLzMwkAxg-6fbiW4TvEV-20" value="" style="edgeStyle=orthogonalEdgeStyle;rounded=1;orthogonalLoop=1;jettySize=auto;html=1;" edge="1" parent="1" source="TLzMwkAxg-6fbiW4TvEV-16" target="TLzMwkAxg-6fbiW4TvEV-19">
          <mxGeometry relative="1" as="geometry" />
        </mxCell>
        <mxCell id="TLzMwkAxg-6fbiW4TvEV-16" value="Decidir o Serviço" style="whiteSpace=wrap;html=1;rounded=1;" vertex="1" parent="1">
          <mxGeometry x="180" y="353" width="120" height="60" as="geometry" />
        </mxCell>
        <mxCell id="TLzMwkAxg-6fbiW4TvEV-22" value="" style="edgeStyle=orthogonalEdgeStyle;rounded=1;orthogonalLoop=1;jettySize=auto;html=1;" edge="1" parent="1" source="TLzMwkAxg-6fbiW4TvEV-19" target="TLzMwkAxg-6fbiW4TvEV-21">
          <mxGeometry relative="1" as="geometry" />
        </mxCell>
        <mxCell id="TLzMwkAxg-6fbiW4TvEV-25" value="" style="edgeStyle=orthogonalEdgeStyle;rounded=1;orthogonalLoop=1;jettySize=auto;html=1;" edge="1" parent="1" source="TLzMwkAxg-6fbiW4TvEV-19" target="TLzMwkAxg-6fbiW4TvEV-24">
          <mxGeometry relative="1" as="geometry" />
        </mxCell>
        <mxCell id="TLzMwkAxg-6fbiW4TvEV-19" value="Nome da empresa/sistema" style="whiteSpace=wrap;html=1;rounded=1;" vertex="1" parent="1">
          <mxGeometry x="180" y="493" width="120" height="60" as="geometry" />
        </mxCell>
        <mxCell id="TLzMwkAxg-6fbiW4TvEV-26" style="edgeStyle=orthogonalEdgeStyle;rounded=1;orthogonalLoop=1;jettySize=auto;html=1;" edge="1" parent="1" source="TLzMwkAxg-6fbiW4TvEV-21" target="TLzMwkAxg-6fbiW4TvEV-8">
          <mxGeometry relative="1" as="geometry">
            <Array as="points">
              <mxPoint x="164" y="725" />
              <mxPoint x="429" y="725" />
              <mxPoint x="429" y="120" />
            </Array>
          </mxGeometry>
        </mxCell>
        <mxCell id="TLzMwkAxg-6fbiW4TvEV-21" value="Logo" style="whiteSpace=wrap;html=1;rounded=1;" vertex="1" parent="1">
          <mxGeometry x="104" y="629" width="120" height="60" as="geometry" />
        </mxCell>
        <mxCell id="TLzMwkAxg-6fbiW4TvEV-27" style="edgeStyle=orthogonalEdgeStyle;rounded=1;orthogonalLoop=1;jettySize=auto;html=1;" edge="1" parent="1" source="TLzMwkAxg-6fbiW4TvEV-24" target="TLzMwkAxg-6fbiW4TvEV-8">
          <mxGeometry relative="1" as="geometry">
            <Array as="points">
              <mxPoint x="312" y="725" />
              <mxPoint x="429" y="725" />
              <mxPoint x="429" y="120" />
            </Array>
          </mxGeometry>
        </mxCell>
        <mxCell id="TLzMwkAxg-6fbiW4TvEV-24" value="Website" style="whiteSpace=wrap;html=1;rounded=1;" vertex="1" parent="1">
          <mxGeometry x="252" y="629" width="120" height="60" as="geometry" />
        </mxCell>
        <mxCell id="TLzMwkAxg-6fbiW4TvEV-31" value="" style="edgeStyle=orthogonalEdgeStyle;rounded=1;orthogonalLoop=1;jettySize=auto;html=1;" edge="1" parent="1" source="TLzMwkAxg-6fbiW4TvEV-28" target="TLzMwkAxg-6fbiW4TvEV-30">
          <mxGeometry relative="1" as="geometry">
            <Array as="points">
              <mxPoint x="663" y="458" />
              <mxPoint x="528" y="458" />
            </Array>
          </mxGeometry>
        </mxCell>
        <mxCell id="TLzMwkAxg-6fbiW4TvEV-35" style="edgeStyle=orthogonalEdgeStyle;rounded=1;orthogonalLoop=1;jettySize=auto;html=1;" edge="1" parent="1" source="TLzMwkAxg-6fbiW4TvEV-28" target="TLzMwkAxg-6fbiW4TvEV-32">
          <mxGeometry relative="1" as="geometry" />
        </mxCell>
        <mxCell id="TLzMwkAxg-6fbiW4TvEV-36" style="edgeStyle=orthogonalEdgeStyle;rounded=1;orthogonalLoop=1;jettySize=auto;html=1;" edge="1" parent="1" source="TLzMwkAxg-6fbiW4TvEV-28" target="TLzMwkAxg-6fbiW4TvEV-34">
          <mxGeometry relative="1" as="geometry">
            <Array as="points">
              <mxPoint x="663" y="458" />
              <mxPoint x="807" y="458" />
            </Array>
          </mxGeometry>
        </mxCell>
        <mxCell id="TLzMwkAxg-6fbiW4TvEV-28" value="Estratégia para alcançar os clientes" style="whiteSpace=wrap;html=1;rounded=1;" vertex="1" parent="1">
          <mxGeometry x="603" y="365" width="120" height="60" as="geometry" />
        </mxCell>
        <mxCell id="TLzMwkAxg-6fbiW4TvEV-38" value="" style="edgeStyle=orthogonalEdgeStyle;rounded=1;orthogonalLoop=1;jettySize=auto;html=1;" edge="1" parent="1" source="TLzMwkAxg-6fbiW4TvEV-30" target="TLzMwkAxg-6fbiW4TvEV-37">
          <mxGeometry relative="1" as="geometry">
            <Array as="points">
              <mxPoint x="528" y="595" />
              <mxPoint x="663" y="595" />
            </Array>
          </mxGeometry>
        </mxCell>
        <mxCell id="TLzMwkAxg-6fbiW4TvEV-30" value="E-mails?" style="whiteSpace=wrap;html=1;rounded=1;" vertex="1" parent="1">
          <mxGeometry x="468" y="498" width="120" height="60" as="geometry" />
        </mxCell>
        <mxCell id="TLzMwkAxg-6fbiW4TvEV-39" style="edgeStyle=orthogonalEdgeStyle;rounded=1;orthogonalLoop=1;jettySize=auto;html=1;" edge="1" parent="1" source="TLzMwkAxg-6fbiW4TvEV-32" target="TLzMwkAxg-6fbiW4TvEV-37">
          <mxGeometry relative="1" as="geometry" />
        </mxCell>
        <mxCell id="TLzMwkAxg-6fbiW4TvEV-32" value="Ligação fria?" style="whiteSpace=wrap;html=1;rounded=1;" vertex="1" parent="1">
          <mxGeometry x="603" y="498" width="120" height="60" as="geometry" />
        </mxCell>
        <mxCell id="TLzMwkAxg-6fbiW4TvEV-40" style="edgeStyle=orthogonalEdgeStyle;rounded=1;orthogonalLoop=1;jettySize=auto;html=1;" edge="1" parent="1" source="TLzMwkAxg-6fbiW4TvEV-34" target="TLzMwkAxg-6fbiW4TvEV-37">
          <mxGeometry relative="1" as="geometry">
            <Array as="points">
              <mxPoint x="798" y="595" />
              <mxPoint x="663" y="595" />
            </Array>
          </mxGeometry>
        </mxCell>
        <mxCell id="TLzMwkAxg-6fbiW4TvEV-34" value="Mensagem?" style="whiteSpace=wrap;html=1;rounded=1;" vertex="1" parent="1">
          <mxGeometry x="738" y="498" width="120" height="60" as="geometry" />
        </mxCell>
        <mxCell id="TLzMwkAxg-6fbiW4TvEV-42" value="" style="edgeStyle=orthogonalEdgeStyle;rounded=1;orthogonalLoop=1;jettySize=auto;html=1;" edge="1" parent="1" source="TLzMwkAxg-6fbiW4TvEV-37" target="TLzMwkAxg-6fbiW4TvEV-41">
          <mxGeometry relative="1" as="geometry" />
        </mxCell>
        <mxCell id="TLzMwkAxg-6fbiW4TvEV-37" value="Agendar reunião&lt;br&gt;Zoom" style="whiteSpace=wrap;html=1;rounded=1;" vertex="1" parent="1">
          <mxGeometry x="603" y="629" width="120" height="60" as="geometry" />
        </mxCell>
        <mxCell id="TLzMwkAxg-6fbiW4TvEV-43" style="edgeStyle=orthogonalEdgeStyle;rounded=1;orthogonalLoop=1;jettySize=auto;html=1;" edge="1" parent="1" source="TLzMwkAxg-6fbiW4TvEV-41" target="TLzMwkAxg-6fbiW4TvEV-13">
          <mxGeometry relative="1" as="geometry">
            <Array as="points">
              <mxPoint x="942" y="753" />
              <mxPoint x="942" y="120" />
            </Array>
          </mxGeometry>
        </mxCell>
        <mxCell id="TLzMwkAxg-6fbiW4TvEV-41" value="Fechar com cliente" style="whiteSpace=wrap;html=1;rounded=1;" vertex="1" parent="1">
          <mxGeometry x="603" y="723" width="120" height="60" as="geometry" />
        </mxCell>
        <mxCell id="TLzMwkAxg-6fbiW4TvEV-51" style="edgeStyle=orthogonalEdgeStyle;rounded=1;orthogonalLoop=1;jettySize=auto;html=1;" edge="1" parent="1" source="TLzMwkAxg-6fbiW4TvEV-44" target="TLzMwkAxg-6fbiW4TvEV-49">
          <mxGeometry relative="1" as="geometry" />
        </mxCell>
        <mxCell id="TLzMwkAxg-6fbiW4TvEV-44" value="Desenvolver estratégia para o negócio do cliente" style="whiteSpace=wrap;html=1;rounded=1;" vertex="1" parent="1">
          <mxGeometry x="968" y="358" width="120" height="60" as="geometry" />
        </mxCell>
        <mxCell id="TLzMwkAxg-6fbiW4TvEV-50" value="" style="edgeStyle=orthogonalEdgeStyle;rounded=1;orthogonalLoop=1;jettySize=auto;html=1;" edge="1" parent="1" source="TLzMwkAxg-6fbiW4TvEV-47" target="TLzMwkAxg-6fbiW4TvEV-49">
          <mxGeometry relative="1" as="geometry" />
        </mxCell>
        <mxCell id="TLzMwkAxg-6fbiW4TvEV-47" value="Estabelecer as etapas para desenvolvimento" style="whiteSpace=wrap;html=1;rounded=1;" vertex="1" parent="1">
          <mxGeometry x="1139" y="358" width="120" height="60" as="geometry" />
        </mxCell>
        <mxCell id="TLzMwkAxg-6fbiW4TvEV-53" value="" style="edgeStyle=orthogonalEdgeStyle;rounded=1;orthogonalLoop=1;jettySize=auto;html=1;" edge="1" parent="1" source="TLzMwkAxg-6fbiW4TvEV-49" target="TLzMwkAxg-6fbiW4TvEV-52">
          <mxGeometry relative="1" as="geometry" />
        </mxCell>
        <mxCell id="TLzMwkAxg-6fbiW4TvEV-49" value="Logo" style="whiteSpace=wrap;html=1;rounded=1;" vertex="1" parent="1">
          <mxGeometry x="1057" y="481" width="120" height="60" as="geometry" />
        </mxCell>
        <mxCell id="TLzMwkAxg-6fbiW4TvEV-55" value="" style="edgeStyle=orthogonalEdgeStyle;rounded=1;orthogonalLoop=1;jettySize=auto;html=1;" edge="1" parent="1" source="TLzMwkAxg-6fbiW4TvEV-52" target="TLzMwkAxg-6fbiW4TvEV-54">
          <mxGeometry relative="1" as="geometry" />
        </mxCell>
        <mxCell id="TLzMwkAxg-6fbiW4TvEV-62" value="" style="edgeStyle=orthogonalEdgeStyle;rounded=0;orthogonalLoop=1;jettySize=auto;html=1;" edge="1" parent="1" source="TLzMwkAxg-6fbiW4TvEV-52" target="TLzMwkAxg-6fbiW4TvEV-61">
          <mxGeometry relative="1" as="geometry" />
        </mxCell>
        <mxCell id="TLzMwkAxg-6fbiW4TvEV-52" value="Website" style="whiteSpace=wrap;html=1;rounded=1;" vertex="1" parent="1">
          <mxGeometry x="1057" y="575" width="120" height="60" as="geometry" />
        </mxCell>
        <mxCell id="TLzMwkAxg-6fbiW4TvEV-57" value="" style="edgeStyle=orthogonalEdgeStyle;rounded=1;orthogonalLoop=1;jettySize=auto;html=1;" edge="1" parent="1" source="TLzMwkAxg-6fbiW4TvEV-54" target="TLzMwkAxg-6fbiW4TvEV-56">
          <mxGeometry relative="1" as="geometry" />
        </mxCell>
        <mxCell id="TLzMwkAxg-6fbiW4TvEV-54" value="Sistema&lt;br&gt;Web ou Windows?" style="whiteSpace=wrap;html=1;rounded=1;" vertex="1" parent="1">
          <mxGeometry x="1057" y="674" width="120" height="60" as="geometry" />
        </mxCell>
        <mxCell id="TLzMwkAxg-6fbiW4TvEV-59" value="" style="edgeStyle=orthogonalEdgeStyle;rounded=1;orthogonalLoop=1;jettySize=auto;html=1;" edge="1" parent="1" source="TLzMwkAxg-6fbiW4TvEV-56" target="TLzMwkAxg-6fbiW4TvEV-58">
          <mxGeometry relative="1" as="geometry" />
        </mxCell>
        <mxCell id="TLzMwkAxg-6fbiW4TvEV-56" value="Resultado" style="whiteSpace=wrap;html=1;rounded=1;" vertex="1" parent="1">
          <mxGeometry x="1057" y="768" width="120" height="60" as="geometry" />
        </mxCell>
        <mxCell id="TLzMwkAxg-6fbiW4TvEV-58" value="Oferecer suporte" style="whiteSpace=wrap;html=1;rounded=1;" vertex="1" parent="1">
          <mxGeometry x="1257" y="768" width="120" height="60" as="geometry" />
        </mxCell>
        <mxCell id="TLzMwkAxg-6fbiW4TvEV-61" value="Aparecer no Google" style="whiteSpace=wrap;html=1;rounded=1;" vertex="1" parent="1">
          <mxGeometry x="1257" y="575" width="120" height="60" as="geometry" />
        </mxCell>
      </root>
    </mxGraphModel>
  </diagram>
</mxfile>
